<svg class="brand-title" width="108" height="44" fill="none" xmlns="http://www.w3.org/2000/svg"><path class="svg-title-path" d="M11.098 43.58c-3.281 0-5.842-.49-7.682-1.472-1.81-.95-2.714-2.515-2.714-4.692 0-1.135.26-2.147.782-3.036.552-.859 1.395-1.748 2.53-2.668a3.837 3.837 0 0 1-1.288-1.426 4.247 4.247 0 0 1-.414-1.84c0-.46.107-.935.322-1.426.245-.49.736-1.319 1.472-2.484C2.02 23.003.978 20.764.978 17.82c0-2.79.843-4.86 2.53-6.21 1.717-1.38 4.094-2.07 7.13-2.07 1.288 0 2.837.2 4.646.598l7.406-.23v4.922l-3.45-.276c.399.644.66 1.196.782 1.656.153.46.23 1.089.23 1.886 0 2.76-.782 4.738-2.346 5.934-1.564 1.165-3.94 1.748-7.13 1.748-.92 0-1.625-.061-2.116-.184-.307.736-.46 1.365-.46 1.886 0 .644.307 1.043.92 1.196.644.123 1.825.2 3.542.23 2.361.061 4.232.245 5.612.552 1.41.307 2.5.935 3.266 1.886.767.92 1.15 2.285 1.15 4.094 0 2.79-.95 4.845-2.852 6.164-1.901 1.319-4.815 1.978-8.74 1.978Zm-.414-22.494c2.33 0 3.496-1.135 3.496-3.404 0-2.239-1.165-3.358-3.496-3.358-2.361 0-3.542 1.12-3.542 3.358 0 2.27 1.18 3.404 3.542 3.404Zm.828 17.434c1.748 0 3.005-.2 3.772-.598.797-.399 1.196-1.012 1.196-1.84 0-.767-.291-1.257-.874-1.472-.552-.184-1.211-.291-1.978-.322a44.129 44.129 0 0 0-1.472-.046l-4.14-.322c-.828.828-1.242 1.656-1.242 2.484 0 .736.383 1.273 1.15 1.61.797.337 1.993.506 3.588.506ZM26.424 10h6.118v2.438c2.637-1.533 5.09-2.53 7.36-2.99v6.21c-2.3.46-4.431.997-6.394 1.61l-.92.322V33h-6.164V10ZM43.54 10h6.163v23H43.54V10Zm0-9.154h6.163v6.21H43.54V.846ZM62.591 33h-4.324l-5.658-23h6.072l4.186 17.756h1.058L68.111 10h6.072l-8.096 32.66h-6.026l2.53-9.66ZM82.978 33.552c-4.754 0-7.13-2.515-7.13-7.544 0-2.392.628-4.11 1.886-5.152 1.288-1.073 3.342-1.702 6.164-1.886l4.922-.368v-1.426c0-.92-.215-1.564-.644-1.932-.4-.368-1.09-.552-2.07-.552-1.012 0-2.408.046-4.186.138-1.78.061-3.266.138-4.462.23l-.184-4.278c3.312-.89 6.44-1.334 9.384-1.334s5.06.613 6.348 1.84c1.318 1.227 1.978 3.19 1.978 5.888v9.568c.06.767.184 1.288.368 1.564.214.276.598.475 1.15.598l-.184 4.646c-1.595 0-2.868-.107-3.818-.322-.92-.215-1.84-.644-2.76-1.288-2.24 1.073-4.493 1.61-6.762 1.61Zm1.334-5.014c1.165 0 2.438-.184 3.818-.552l.69-.184V22.88l-4.186.368c-1.718.153-2.576 1.073-2.576 2.76 0 1.687.75 2.53 2.254 2.53ZM100.584 25.364h6.624V33h-6.624v-7.636Z" fill="#fff"/></svg>