<svg class="logo-abbr me-3" width="64" height="64" fill="none" xmlns="http://www.w3.org/2000/svg"><rect class="rect-primary-rect" width="64" height="64" rx="18" fill="#F2F6FC"/><path d="M33.913 48.646H16.77a1.42 1.42 0 0 1-1.417-1.417V22.933c0-.779.638-1.416 1.417-1.416h.85c9.775 0 17.708 7.933 17.708 17.708v8.004c-.07.78-.637 1.417-1.416 1.417Zm-15.796-2.763h14.379v-6.658c0-8.075-6.375-14.592-14.38-14.875v21.533Z" fill="#216FED"/><path d="M47.23 48.646H30.086a1.42 1.42 0 0 1-1.416-1.417c0-.779.637-1.416 1.416-1.416h15.796v-12.75c0-8.076-6.375-14.592-14.379-14.876v10.059a1.42 1.42 0 0 1-1.417 1.417 1.42 1.42 0 0 1-1.416-1.417V16.77c0-.78.637-1.417 1.416-1.417h.85c9.775 0 17.709 7.934 17.709 17.709V47.3c0 .708-.638 1.346-1.417 1.346Z" fill="#216FED"/><path d="M28.246 48.646h-5.95a1.42 1.42 0 0 1-1.417-1.417V37.95c0-.78.638-1.417 1.417-1.417h5.95c.78 0 1.417.638 1.417 1.417v9.28a1.42 1.42 0 0 1-1.417 1.416Zm-4.533-2.763h3.116v-6.516h-3.116v6.516Z" fill="#216FED"/></svg>